{
    "asset" : {
        "generator" : "Khronos glTF Blender I/O v3.4.50",
        "version" : "2.0"
    },
    "extensionsUsed" : [
        "KHR_materials_specular",
        "KHR_materials_ior"
    ],
    "scene" : 0,
    "scenes" : [
        {
            "name" : "Scene",
            "nodes" : [
                5
            ]
        }
    ],
    "nodes" : [
        {
            "mesh" : 0,
            "name" : "Arm001",
            "rotation" : [
                0,
                0,
                -0.7071068286895752,
                0.7071068286895752
            ],
            "translation" : [
                5,
                0,
                0
            ]
        },
        {
            "mesh" : 1,
            "name" : "Arm002",
            "rotation" : [
                0.7071068286895752,
                -0.7071068286895752,
                0,
                5.338509012631221e-08
            ],
            "translation" : [
                -5,
                0,
                0
            ]
        },
        {
            "mesh" : 2,
            "name" : "Arm003",
            "rotation" : [
                -0.5,
                0.5,
                -0.5,
                0.5000000596046448
            ],
            "translation" : [
                0,
                0,
                -4.999999046325684
            ]
        },
        {
            "mesh" : 3,
            "name" : "Arm004",
            "rotation" : [
                0.5,
                -0.4999999403953552,
                -0.5,
                0.5000000596046448
            ],
            "translation" : [
                0,
                0,
                5.000000476837158
            ]
        },
        {
            "mesh" : 4,
            "name" : "Body(Concave)+Colour(7000000_5000000)+Pattern(Diamond)+_b1746ea",
            "translation" : [
                0,
                -20.000001907348633,
                0
            ]
        },
        {
            "children" : [
                0,
                1,
                2,
                3,
                4
            ],
            "name" : "Body(Concave)+Colour(7000000_5000000)+Pattern(Diamond)+_3152b06",
            "scale" : [
                0.02539999969303608,
                0.02539999969303608,
                0.02539999969303608
            ]
        }
    ],
    "materials" : [
        {
            "alphaMode" : "BLEND",
            "doubleSided" : true,
            "extensions" : {
                "KHR_materials_specular" : {
                    "specularColorFactor" : [
                        0,
                        0,
                        0
                    ]
                },
                "KHR_materials_ior" : {
                    "ior" : 1.4500000476837158
                }
            },
            "name" : "Standardmaterial.30498",
            "pbrMetallicRoughness" : {
                "baseColorTexture" : {
                    "index" : 0
                },
                "roughnessFactor" : 0.858578622341156
            }
        },
        {
            "doubleSided" : true,
            "extensions" : {
                "KHR_materials_specular" : {
                    "specularColorFactor" : [
                        0,
                        0,
                        0
                    ]
                },
                "KHR_materials_ior" : {
                    "ior" : 1.4500000476837158
                }
            },
            "name" : "Standardmaterial.30497",
            "pbrMetallicRoughness" : {
                "baseColorTexture" : {
                    "index" : 1
                },
                "roughnessFactor" : 0.858578622341156
            }
        }
    ],
    "meshes" : [
        {
            "name" : "Mesh.40956",
            "primitives" : [
                {
                    "attributes" : {
                        "POSITION" : 0,
                        "TEXCOORD_0" : 1,
                        "NORMAL" : 2
                    },
                    "indices" : 3,
                    "material" : 0
                }
            ]
        },
        {
            "name" : "Mesh.40957",
            "primitives" : [
                {
                    "attributes" : {
                        "POSITION" : 4,
                        "TEXCOORD_0" : 5,
                        "NORMAL" : 6
                    },
                    "indices" : 3,
                    "material" : 0
                }
            ]
        },
        {
            "name" : "Mesh.40958",
            "primitives" : [
                {
                    "attributes" : {
                        "POSITION" : 7,
                        "TEXCOORD_0" : 8,
                        "NORMAL" : 9
                    },
                    "indices" : 3,
                    "material" : 0
                }
            ]
        },
        {
            "name" : "Mesh.40959",
            "primitives" : [
                {
                    "attributes" : {
                        "POSITION" : 10,
                        "TEXCOORD_0" : 11,
                        "NORMAL" : 12
                    },
                    "indices" : 3,
                    "material" : 0
                }
            ]
        },
        {
            "name" : "Mesh.40955",
            "primitives" : [
                {
                    "attributes" : {
                        "POSITION" : 13,
                        "TEXCOORD_0" : 14,
                        "NORMAL" : 15
                    },
                    "indices" : 16,
                    "material" : 1
                }
            ]
        }
    ],
    "textures" : [
        {
            "sampler" : 0,
            "source" : 0
        },
        {
            "sampler" : 0,
            "source" : 1
        }
    ],
    "images" : [
        {
            "bufferView" : 4,
            "mimeType" : "image/png",
            "name" : "70_70_70"
        },
        {
            "bufferView" : 18,
            "mimeType" : "image/png",
            "name" : "Pattern(Diamond)+Colour(7000000_5000000)"
        }
    ],
    "accessors" : [
        {
            "bufferView" : 0,
            "componentType" : 5126,
            "count" : 945,
            "max" : [
                4,
                25,
                4
            ],
            "min" : [
                -4,
                0,
                -4
            ],
            "type" : "VEC3"
        },
        {
            "bufferView" : 1,
            "componentType" : 5126,
            "count" : 945,
            "type" : "VEC2"
        },
        {
            "bufferView" : 2,
            "componentType" : 5126,
            "count" : 945,
            "type" : "VEC3"
        },
        {
            "bufferView" : 3,
            "componentType" : 5123,
            "count" : 5040,
            "type" : "SCALAR"
        },
        {
            "bufferView" : 5,
            "componentType" : 5126,
            "count" : 945,
            "max" : [
                4,
                25,
                4
            ],
            "min" : [
                -4,
                0,
                -4
            ],
            "type" : "VEC3"
        },
        {
            "bufferView" : 6,
            "componentType" : 5126,
            "count" : 945,
            "type" : "VEC2"
        },
        {
            "bufferView" : 7,
            "componentType" : 5126,
            "count" : 945,
            "type" : "VEC3"
        },
        {
            "bufferView" : 8,
            "componentType" : 5126,
            "count" : 945,
            "max" : [
                4,
                25,
                4
            ],
            "min" : [
                -4,
                0,
                -4
            ],
            "type" : "VEC3"
        },
        {
            "bufferView" : 9,
            "componentType" : 5126,
            "count" : 945,
            "type" : "VEC2"
        },
        {
            "bufferView" : 10,
            "componentType" : 5126,
            "count" : 945,
            "type" : "VEC3"
        },
        {
            "bufferView" : 11,
            "componentType" : 5126,
            "count" : 945,
            "max" : [
                4,
                25,
                4
            ],
            "min" : [
                -4,
                0,
                -4
            ],
            "type" : "VEC3"
        },
        {
            "bufferView" : 12,
            "componentType" : 5126,
            "count" : 945,
            "type" : "VEC2"
        },
        {
            "bufferView" : 13,
            "componentType" : 5126,
            "count" : 945,
            "type" : "VEC3"
        },
        {
            "bufferView" : 14,
            "componentType" : 5126,
            "count" : 10064,
            "max" : [
                15.761817932128906,
                38.64957809448242,
                15.761816024780273
            ],
            "min" : [
                -15.761816024780273,
                1.350423812866211,
                -15.761817932128906
            ],
            "type" : "VEC3"
        },
        {
            "bufferView" : 15,
            "componentType" : 5126,
            "count" : 10064,
            "type" : "VEC2"
        },
        {
            "bufferView" : 16,
            "componentType" : 5126,
            "count" : 10064,
            "type" : "VEC3"
        },
        {
            "bufferView" : 17,
            "componentType" : 5123,
            "count" : 57600,
            "type" : "SCALAR"
        }
    ],
    "bufferViews" : [
        {
            "buffer" : 0,
            "byteLength" : 11340,
            "byteOffset" : 0,
            "target" : 34962
        },
        {
            "buffer" : 0,
            "byteLength" : 7560,
            "byteOffset" : 11340,
            "target" : 34962
        },
        {
            "buffer" : 0,
            "byteLength" : 11340,
            "byteOffset" : 18900,
            "target" : 34962
        },
        {
            "buffer" : 0,
            "byteLength" : 10080,
            "byteOffset" : 30240,
            "target" : 34963
        },
        {
            "buffer" : 0,
            "byteLength" : 5835,
            "byteOffset" : 40320
        },
        {
            "buffer" : 0,
            "byteLength" : 11340,
            "byteOffset" : 46156,
            "target" : 34962
        },
        {
            "buffer" : 0,
            "byteLength" : 7560,
            "byteOffset" : 57496,
            "target" : 34962
        },
        {
            "buffer" : 0,
            "byteLength" : 11340,
            "byteOffset" : 65056,
            "target" : 34962
        },
        {
            "buffer" : 0,
            "byteLength" : 11340,
            "byteOffset" : 76396,
            "target" : 34962
        },
        {
            "buffer" : 0,
            "byteLength" : 7560,
            "byteOffset" : 87736,
            "target" : 34962
        },
        {
            "buffer" : 0,
            "byteLength" : 11340,
            "byteOffset" : 95296,
            "target" : 34962
        },
        {
            "buffer" : 0,
            "byteLength" : 11340,
            "byteOffset" : 106636,
            "target" : 34962
        },
        {
            "buffer" : 0,
            "byteLength" : 7560,
            "byteOffset" : 117976,
            "target" : 34962
        },
        {
            "buffer" : 0,
            "byteLength" : 11340,
            "byteOffset" : 125536,
            "target" : 34962
        },
        {
            "buffer" : 0,
            "byteLength" : 120768,
            "byteOffset" : 136876,
            "target" : 34962
        },
        {
            "buffer" : 0,
            "byteLength" : 80512,
            "byteOffset" : 257644,
            "target" : 34962
        },
        {
            "buffer" : 0,
            "byteLength" : 120768,
            "byteOffset" : 338156,
            "target" : 34962
        },
        {
            "buffer" : 0,
            "byteLength" : 115200,
            "byteOffset" : 458924,
            "target" : 34963
        },
        {
            "buffer" : 0,
            "byteLength" : 49189,
            "byteOffset" : 574124
        }
    ],
    "samplers" : [
        {
            "magFilter" : 9729,
            "minFilter" : 9987
        }
    ],
    "buffers" : [
        {
            "byteLength" : 623316,
            "uri" : "data:application/octet-stream;base64,"
        }
    ]
}
