{
    "asset" : {
        "generator" : "Khronos glTF Blender I/O v3.4.50",
        "version" : "2.0"
    },
    "scene" : 0,
    "scenes" : [
        {
            "name" : "Scene",
            "nodes" : [
                0,
                1
            ]
        }
    ],
    "nodes" : [
        {
            "name" : "Empty.001",
            "rotation" : [
                0.5,
                -0.5,
                -0.5000000596046448,
                0.5
            ],
            "scale" : [
                0.3500000834465027,
                0.050000011920928955,
                0.3500000834465027
            ],
            "translation" : [
                0,
                0,
                0.5
            ]
        },
        {
            "mesh" : 0,
            "name" : "Torus",
            "rotation" : [
                0.7073153257369995,
                0,
                0,
                0.7068982720375061
            ],
            "scale" : [
                0.3355616331100464,
                0.3355616331100464,
                0.3355616331100464
            ]
        }
    ],
    "meshes" : [
        {
            "name" : "Torus",
            "primitives" : [
                {
                    "attributes" : {
                        "POSITION" : 0,
                        "TEXCOORD_0" : 1,
                        "NORMAL" : 2
                    },
                    "indices" : 3
                }
            ]
        }
    ],
    "accessors" : [
        {
            "bufferView" : 0,
            "componentType" : 5126,
            "count" : 2304,
            "max" : [
                1.25,
                0.25,
                1.25
            ],
            "min" : [
                -1.25,
                -0.25,
                -1.25
            ],
            "type" : "VEC3"
        },
        {
            "bufferView" : 1,
            "componentType" : 5126,
            "count" : 2304,
            "type" : "VEC2"
        },
        {
            "bufferView" : 2,
            "componentType" : 5126,
            "count" : 2304,
            "type" : "VEC3"
        },
        {
            "bufferView" : 3,
            "componentType" : 5123,
            "count" : 3456,
            "type" : "SCALAR"
        }
    ],
    "bufferViews" : [
        {
            "buffer" : 0,
            "byteLength" : 27648,
            "byteOffset" : 0,
            "target" : 34962
        },
        {
            "buffer" : 0,
            "byteLength" : 18432,
            "byteOffset" : 27648,
            "target" : 34962
        },
        {
            "buffer" : 0,
            "byteLength" : 27648,
            "byteOffset" : 46080,
            "target" : 34962
        },
        {
            "buffer" : 0,
            "byteLength" : 6912,
            "byteOffset" : 73728,
            "target" : 34963
        }
    ],
    "buffers" : [
        {
            "byteLength" : 80640,
            "uri" : "data:application/octet-stream;base64,"
        }
    ]
}
